<svg width="171" height="32" viewBox="0 0 171 32" fill="none" xmlns="http://www.w3.org/2000/svg">
<g clip-path="url(#clip0_11470_26598)">
<path d="M9.60701 21.6092C9.50694 21.4089 9.60701 21.1084 9.70709 20.9081C9.90723 20.7078 10.1074 20.6076 10.4076 20.7078L13.8101 21.4089C14.7107 21.6092 15.4113 21.4089 16.2118 20.9081C17.0124 20.4073 17.4127 19.7062 17.6129 18.8048C17.813 17.9034 17.6129 17.2023 17.1125 16.401C16.6121 15.5998 15.9116 15.1991 15.111 14.9988L0 11.9941C0 12.2946 0 12.5951 0.100073 12.8955L3.80278 26.617C4.00292 27.4182 4.60336 28.0192 5.40394 28.2195L12.309 30.1225L9.60701 21.6092Z" fill="#FB346D"/>
<path d="M31.9228 19.205L28.2201 5.38341C28.02 4.58216 27.4195 3.98122 26.6189 3.78091L12.8088 0.0751174C12.0083 -0.125196 11.2077 0.0751174 10.6072 0.676056L3.90234 7.28639L16.2113 9.89045C18.513 10.3912 20.3143 11.5931 21.6153 13.5962C22.9162 15.5994 23.3165 17.8028 22.8162 20.0063C22.4159 21.8091 21.6153 23.2113 20.3143 24.4131C19.3136 25.4147 18.1127 26.1158 16.8118 26.5164L18.513 31.7246L19.2135 31.9249C20.0141 32.1252 20.8147 31.9249 21.4151 31.3239L31.4224 21.3083C31.9228 20.8075 32.1229 19.9061 31.9228 19.205Z" fill="#FB346D"/>
</g>
<g clip-path="url(#clip1_11470_26598)">
<path d="M43.223 20.3172V23.0537C43.223 23.7226 43.0405 24.2091 42.7365 24.5132C42.4324 24.8172 42.0068 24.9997 41.5811 24.9997C41.0946 24.9997 40.7297 24.8172 40.4257 24.5132C40.1216 24.1483 40 23.6618 40 23.0537V13.9929C40 12.5334 40.5473 11.8037 41.5811 11.8037C42.1284 11.8037 42.4932 11.9861 42.7365 12.2902C42.9797 12.6551 43.1014 13.1415 43.1014 13.8105C43.4662 13.1415 43.8919 12.6551 44.3176 12.2902C44.7432 11.9253 45.2905 11.8037 45.9595 11.8037C46.6284 11.8037 47.2973 11.9861 47.9662 12.2902C48.6351 12.6551 48.9392 13.0807 48.9392 13.628C48.9392 14.0537 48.8176 14.3578 48.5135 14.601C48.2703 14.8443 47.9662 14.9659 47.6014 14.9659C47.4797 14.9659 47.1757 14.9051 46.75 14.7226C46.3243 14.601 45.8986 14.4794 45.5338 14.4794C45.0473 14.4794 44.6824 14.601 44.3784 14.8443C44.0743 15.0875 43.8311 15.4524 43.6486 15.9388C43.4662 16.4253 43.3446 17.0334 43.2838 17.7024C43.2838 18.5537 43.223 19.3443 43.223 20.3172Z" fill="#3A86FF"/>
<path d="M58.3648 19.2233H52.0404C52.0404 19.9531 52.2229 20.622 52.4661 21.1693C52.7702 21.7166 53.135 22.1423 53.6215 22.4463C54.108 22.7504 54.6553 22.872 55.2026 22.872C55.5675 22.872 55.9323 22.8112 56.2364 22.7504C56.5404 22.6896 56.8445 22.5071 57.1485 22.3247C57.4526 22.1423 57.7567 21.899 57.9999 21.7166C58.2431 21.4733 58.608 21.1693 58.9729 20.8044C59.1553 20.6828 59.3985 20.5612 59.7026 20.5612C60.0067 20.5612 60.3107 20.622 60.4931 20.8044C60.6756 20.9869 60.7972 21.2301 60.7972 21.595C60.7972 21.899 60.6756 22.2031 60.4323 22.6287C60.1891 22.9936 59.885 23.4193 59.3985 23.7842C58.9121 24.149 58.3648 24.4531 57.635 24.6963C56.9053 24.9396 56.1148 25.0612 55.2026 25.0612C53.135 25.0612 51.4931 24.4531 50.3377 23.2977C49.1823 22.0815 48.5742 20.5004 48.5742 18.4936C48.5742 17.5206 48.6958 16.6693 48.9999 15.8179C49.3039 14.9666 49.7296 14.2977 50.2769 13.6896C50.8242 13.0815 51.4931 12.6558 52.2837 12.3517C53.0742 12.0477 53.9864 11.8652 54.9594 11.8652C56.2364 11.8652 57.331 12.1085 58.2431 12.6558C59.1553 13.2031 59.8242 13.872 60.2499 14.7233C60.6756 15.5747 60.9188 16.426 60.9188 17.3382C60.9188 18.1287 60.6756 18.676 60.1891 18.9193C59.885 19.1017 59.2161 19.2233 58.3648 19.2233ZM52.0404 17.399H57.9391C57.8783 16.3044 57.5742 15.4531 57.0269 14.9058C56.4796 14.3585 55.8107 14.0544 54.9594 14.0544C54.1688 14.0544 53.4999 14.3585 52.9526 14.9058C52.4661 15.4531 52.1621 16.3044 52.0404 17.399Z" fill="#3A86FF"/>
<path d="M71.2563 23.176C70.4658 23.7842 69.736 24.2706 69.0063 24.5747C68.2766 24.8787 67.4252 25.0612 66.5131 25.0612C65.6617 25.0612 64.932 24.8787 64.3239 24.5747C63.7158 24.2706 63.2293 23.7842 62.8644 23.2369C62.4996 22.6896 62.3779 22.0815 62.3779 21.4125C62.3779 20.5004 62.682 19.7706 63.2293 19.1625C63.7766 18.5544 64.5671 18.1287 65.5401 17.8855C65.7225 17.8247 66.2698 17.7031 67.0604 17.5815C67.8509 17.399 68.5806 17.2774 69.1279 17.095C69.736 16.9733 70.3441 16.7909 71.0131 16.6085C70.9523 15.7571 70.8306 15.149 70.5266 14.7233C70.2225 14.2977 69.6144 14.1152 68.6414 14.1152C67.7901 14.1152 67.182 14.2369 66.7563 14.4801C66.3306 14.7233 65.9658 15.0274 65.6617 15.5139C65.3577 16.0004 65.1752 16.3044 65.0536 16.426C64.932 16.5477 64.6887 16.6693 64.2631 16.6693C63.8982 16.6693 63.5941 16.5477 63.2901 16.3044C63.0468 16.0612 62.8644 15.7571 62.8644 15.3923C62.8644 14.845 63.0468 14.2977 63.4725 13.7504C63.8982 13.2031 64.5063 12.7774 65.3577 12.4125C66.209 12.0477 67.3036 11.8652 68.5806 11.8652C69.9793 11.8652 71.1347 12.0477 71.9252 12.3517C72.7158 12.7166 73.3239 13.2031 73.6279 13.9328C73.9928 14.6625 74.1144 15.6355 74.1144 16.8517C74.1144 17.5815 74.1144 18.2504 74.1144 18.7977C74.1144 19.345 74.1144 19.8923 74.1144 20.5612C74.1144 21.1693 74.236 21.7774 74.4185 22.4463C74.6009 23.1152 74.7225 23.5409 74.7225 23.7233C74.7225 24.0274 74.5401 24.3315 74.236 24.6355C73.932 24.8787 73.5671 25.0612 73.2023 25.0612C72.8982 25.0612 72.5333 24.8787 72.2293 24.5747C71.986 24.2098 71.6212 23.7842 71.2563 23.176ZM71.0739 18.4936C70.5874 18.676 69.9185 18.8585 69.0063 19.0409C68.0941 19.2233 67.486 19.4058 67.1212 19.4666C66.7563 19.5274 66.4523 19.7098 66.1482 20.0139C65.8441 20.2571 65.6617 20.622 65.6617 21.1085C65.6617 21.595 65.8441 22.0206 66.209 22.3855C66.5739 22.7504 67.0604 22.872 67.6685 22.872C68.3374 22.872 68.8847 22.7504 69.432 22.4463C69.9793 22.1423 70.3441 21.7774 70.6482 21.3517C70.9523 20.8652 71.0739 20.0747 71.0739 18.9193V18.4936Z" fill="#3A86FF"/>
<path d="M88.4059 20.9861C88.4059 21.4118 88.2842 21.8375 88.041 22.2632C87.7977 22.7497 87.4329 23.1753 86.9464 23.601C86.4599 24.0267 85.8518 24.3307 85.0613 24.6348C84.3315 24.878 83.4802 24.9997 82.5072 24.9997C80.5004 24.9997 78.9194 24.3915 77.8248 23.2361C76.7302 22.0807 76.1221 20.4997 76.1221 18.5537C76.1221 17.2159 76.3653 16.0605 76.9126 15.0267C77.3991 13.9929 78.1896 13.2024 79.1626 12.6551C80.1356 12.1078 81.291 11.8037 82.6288 11.8037C83.4802 11.8037 84.2099 11.9253 84.9396 12.1686C85.6694 12.4118 86.2167 12.7159 86.7032 13.1415C87.1896 13.5064 87.5545 13.9321 87.7977 14.3578C88.041 14.7834 88.1626 15.2091 88.1626 15.574C88.1626 15.9388 88.041 16.3037 87.7369 16.547C87.4329 16.7902 87.068 16.9726 86.7032 16.9726C86.4599 16.9726 86.2167 16.9118 86.0342 16.7902C85.8518 16.6686 85.6694 16.4253 85.4261 16.1213C85.0004 15.5132 84.6356 15.0875 84.2099 14.7834C83.7842 14.4794 83.2369 14.3578 82.568 14.3578C81.595 14.3578 80.8653 14.7226 80.2572 15.4524C79.6491 16.1821 79.4059 17.2159 79.4059 18.4929C79.4059 19.101 79.4667 19.6483 79.6491 20.1956C79.7707 20.6821 80.014 21.1686 80.318 21.4726C80.6221 21.8375 80.9261 22.0807 81.3518 22.2632C81.7775 22.4456 82.2031 22.5672 82.6896 22.5672C83.3586 22.5672 83.9059 22.4456 84.3315 22.1415C84.818 21.8375 85.1829 21.4118 85.5477 20.7429C85.7302 20.378 85.9734 20.074 86.2167 19.8915C86.4599 19.7091 86.7032 19.5875 87.068 19.5875C87.4937 19.5875 87.7977 19.7091 88.041 20.0132C88.2842 20.3172 88.4059 20.6213 88.4059 20.9861Z" fill="#3A86FF"/>
<path d="M90.7163 12.1082H91.0812V10.1623C91.0812 9.61497 91.0812 9.25011 91.142 8.94605C91.142 8.642 91.2636 8.39875 91.3852 8.15551C91.5068 7.91227 91.6893 7.72984 91.9325 7.60821C92.1758 7.48659 92.419 7.42578 92.7231 7.42578C93.1487 7.42578 93.5136 7.60821 93.8176 7.91227C94.0609 8.0947 94.1825 8.39875 94.2433 8.642C94.3041 8.88524 94.3041 9.37173 94.3041 9.91902V12.1082H95.5204C96.0068 12.1082 96.3109 12.2298 96.5541 12.4123C96.7974 12.6555 96.919 12.8988 96.919 13.2636C96.919 13.6893 96.7366 13.9933 96.4325 14.1758C96.0676 14.3582 95.5812 14.419 94.9731 14.419H94.3649V20.3785C94.3649 20.865 94.3649 21.2906 94.4258 21.5339C94.4866 21.7771 94.5474 22.0204 94.7298 22.2028C94.9122 22.3852 95.1555 22.4461 95.4595 22.4461C95.642 22.4461 95.8852 22.3852 96.2501 22.3244C96.5541 22.2636 96.8582 22.2028 96.9798 22.2028C97.2231 22.2028 97.4663 22.3244 97.7095 22.5069C97.892 22.6893 98.0136 22.9933 98.0136 23.2974C98.0136 23.8447 97.7095 24.2096 97.1622 24.5136C96.6149 24.8177 95.7636 24.9393 94.7298 24.9393C93.696 24.9393 92.9663 24.7569 92.419 24.4528C91.8717 24.1488 91.5676 23.6623 91.3852 23.0542C91.2028 22.4461 91.142 21.6555 91.142 20.6217V14.419H90.7163C90.2298 14.419 89.8649 14.2974 89.6217 14.115C89.3785 13.8717 89.2568 13.6285 89.2568 13.2636C89.2568 12.8988 89.3785 12.6555 89.6217 12.4123C89.8041 12.2298 90.2298 12.1082 90.7163 12.1082Z" fill="#3A86FF"/>
<path d="M112.79 22.7497L111.939 20.5605H104.885L104.033 22.8105C103.729 23.6619 103.425 24.27 103.182 24.5741C102.939 24.8781 102.574 25.0605 102.027 25.0605C101.601 25.0605 101.175 24.8781 100.871 24.5741C100.506 24.27 100.385 23.9051 100.385 23.4795C100.385 23.2362 100.446 22.993 100.506 22.7497C100.567 22.5065 100.689 22.1416 100.871 21.716L105.31 10.4051C105.432 10.1011 105.614 9.67541 105.797 9.24974C105.979 8.82406 106.162 8.39838 106.344 8.09433C106.527 7.79028 106.831 7.54703 107.135 7.3646C107.439 7.18217 107.864 7.06055 108.351 7.06055C108.837 7.06055 109.263 7.18217 109.567 7.3646C109.871 7.54703 110.175 7.79028 110.358 8.09433C110.54 8.39838 110.723 8.70244 110.844 9.0673C110.966 9.43217 111.148 9.85784 111.392 10.4051L115.952 21.6551C116.317 22.5065 116.5 23.1146 116.5 23.5403C116.5 23.966 116.317 24.3308 116.013 24.6349C115.648 24.9997 115.283 25.1214 114.797 25.1214C114.493 25.1214 114.31 25.0605 114.067 24.9997C113.885 24.8781 113.702 24.7565 113.581 24.5741C113.459 24.3916 113.277 24.1484 113.155 23.7835C113.033 23.297 112.912 22.993 112.79 22.7497ZM105.797 17.8849H111.027L108.412 10.7092L105.797 17.8849Z" fill="#101828"/>
<path d="M127.081 23.1757V22.8108C126.655 23.2973 126.229 23.723 125.804 24.027C125.378 24.3311 124.892 24.5743 124.405 24.7568C123.919 24.9392 123.371 25 122.763 25C121.973 25 121.243 24.8176 120.635 24.5135C119.966 24.2095 119.419 23.723 118.932 23.1149C118.446 22.5068 118.081 21.777 117.838 20.9865C117.594 20.1351 117.473 19.2838 117.473 18.3108C117.473 16.3041 117.959 14.723 118.932 13.5676C119.905 12.4122 121.243 11.8649 122.824 11.8649C123.736 11.8649 124.527 12.0473 125.196 12.3514C125.865 12.6554 126.473 13.1419 127.081 13.8108V9.00676C127.081 8.33784 127.202 7.85135 127.506 7.48649C127.75 7.12162 128.175 7 128.662 7C129.148 7 129.513 7.18243 129.817 7.48649C130.06 7.79054 130.243 8.27703 130.243 8.88513V23.1757C130.243 23.7838 130.121 24.2703 129.817 24.5743C129.513 24.8784 129.148 25.0608 128.723 25.0608C128.297 25.0608 127.932 24.8784 127.628 24.5743C127.202 24.2095 127.081 23.723 127.081 23.1757ZM120.696 18.3716C120.696 19.223 120.817 20.0135 121.121 20.6216C121.425 21.2297 121.79 21.7162 122.216 22.0203C122.702 22.3243 123.189 22.5068 123.797 22.5068C124.344 22.5068 124.892 22.3851 125.378 22.0811C125.865 21.777 126.229 21.3513 126.533 20.7432C126.838 20.1351 126.959 19.3446 126.959 18.4324C126.959 17.5811 126.838 16.8514 126.533 16.1824C126.229 15.5743 125.865 15.0878 125.378 14.7838C124.892 14.4797 124.344 14.2973 123.797 14.2973C123.189 14.2973 122.702 14.4797 122.216 14.7838C121.729 15.1486 121.365 15.5743 121.121 16.2432C120.817 16.8513 120.696 17.5811 120.696 18.3716Z" fill="#101828"/>
<path d="M143.438 18.6753V22.9929C143.438 23.6618 143.256 24.2091 142.952 24.5132C142.648 24.8172 142.222 24.9997 141.736 24.9997C141.249 24.9997 140.824 24.8172 140.519 24.5132C140.215 24.1483 140.033 23.6618 140.033 22.9929V17.824C140.033 17.0334 140.033 16.3645 139.972 15.9388C139.911 15.5132 139.79 15.0875 139.547 14.8443C139.303 14.5402 138.938 14.4186 138.391 14.4186C137.357 14.4186 136.628 14.7834 136.324 15.5132C135.959 16.2429 135.837 17.2767 135.837 18.6753V23.0537C135.837 23.7226 135.655 24.2091 135.351 24.574C135.047 24.9388 134.621 25.0605 134.134 25.0605C133.648 25.0605 133.222 24.878 132.918 24.574C132.614 24.2091 132.432 23.7226 132.432 23.0537V13.6888C132.432 13.0807 132.553 12.5943 132.857 12.2902C133.161 11.9861 133.526 11.8037 133.952 11.8037C134.378 11.8037 134.742 11.9253 135.047 12.2294C135.351 12.5334 135.472 12.9591 135.472 13.4456V13.7497C136.019 13.0807 136.628 12.5943 137.297 12.2902C137.965 11.9861 138.634 11.8037 139.425 11.8037C140.215 11.8037 140.945 11.9861 141.553 12.2902C142.161 12.5943 142.648 13.0807 143.013 13.7497C143.56 13.0807 144.168 12.5943 144.776 12.2902C145.384 11.9861 146.114 11.8037 146.844 11.8037C147.756 11.8037 148.486 11.9861 149.155 12.351C149.824 12.7159 150.249 13.2024 150.614 13.8713C150.918 14.4794 151.04 15.3915 151.04 16.6686V22.9929C151.04 23.6618 150.857 24.2091 150.553 24.5132C150.249 24.8172 149.824 24.9997 149.337 24.9997C148.851 24.9997 148.425 24.8172 148.121 24.5132C147.817 24.1483 147.634 23.6618 147.634 22.9929V17.5199C147.634 16.851 147.634 16.2429 147.574 15.8172C147.513 15.3915 147.33 15.0267 147.087 14.7834C146.844 14.5402 146.418 14.3578 145.871 14.3578C145.445 14.3578 145.019 14.4794 144.655 14.7226C144.29 14.9659 143.986 15.3307 143.742 15.7564C143.56 16.3037 143.438 17.2767 143.438 18.6753Z" fill="#101828"/>
<path d="M155.054 10.2842C154.628 10.2842 154.203 10.1626 153.899 9.85856C153.595 9.5545 153.412 9.18964 153.412 8.70315C153.412 8.21666 153.595 7.8518 153.899 7.54775C154.203 7.24369 154.628 7.12207 155.054 7.12207C155.48 7.12207 155.845 7.24369 156.149 7.54775C156.453 7.79099 156.635 8.21666 156.635 8.70315C156.635 9.18964 156.453 9.61531 156.149 9.85856C155.905 10.1626 155.54 10.2842 155.054 10.2842ZM156.696 13.6896V23.0545C156.696 23.7234 156.513 24.2099 156.209 24.514C155.905 24.818 155.48 25.0004 155.054 25.0004C154.628 25.0004 154.203 24.818 153.899 24.514C153.595 24.2099 153.473 23.6626 153.473 23.0545V13.7504C153.473 13.0815 153.595 12.6559 153.899 12.291C154.203 11.9869 154.568 11.8045 155.054 11.8045C155.54 11.8045 155.905 11.9869 156.209 12.291C156.513 12.6559 156.696 13.0815 156.696 13.6896Z" fill="#101828"/>
<path d="M162.229 13.628V13.9929C162.776 13.2632 163.445 12.7159 164.114 12.351C164.783 11.9861 165.574 11.8037 166.425 11.8037C167.276 11.8037 168.067 11.9861 168.736 12.351C169.405 12.7159 169.891 13.2632 170.256 13.9321C170.499 14.3578 170.621 14.7834 170.682 15.2091C170.743 15.6956 170.804 16.2429 170.804 16.9726V22.9929C170.804 23.6618 170.682 24.1483 170.378 24.4524C170.074 24.7564 169.709 24.9388 169.222 24.9388C168.736 24.9388 168.371 24.7564 168.067 24.4524C167.763 24.0875 167.641 23.601 167.641 22.9929V17.5807C167.641 16.4861 167.52 15.6956 167.216 15.1483C166.912 14.601 166.304 14.297 165.452 14.297C164.844 14.297 164.358 14.4794 163.871 14.7834C163.385 15.0875 163.02 15.574 162.837 16.1821C162.655 16.6686 162.594 17.5807 162.594 18.9186V22.9929C162.594 23.6618 162.412 24.1483 162.108 24.4524C161.804 24.7564 161.439 24.9388 160.952 24.9388C160.466 24.9388 160.101 24.7564 159.797 24.4524C159.493 24.0875 159.371 23.601 159.371 22.9929V13.6888C159.371 13.0807 159.493 12.5943 159.797 12.2902C160.04 11.9861 160.405 11.8037 160.891 11.8037C161.195 11.8037 161.439 11.8645 161.682 11.9861C161.925 12.1078 162.108 12.351 162.229 12.5943C162.168 12.8983 162.229 13.2024 162.229 13.628Z" fill="#101828"/>
</g>
<defs>
<clipPath id="clip0_11470_26598">
<rect width="32" height="32" fill="white"/>
</clipPath>
<clipPath id="clip1_11470_26598">
<rect width="130.743" height="18" fill="white" transform="translate(40 7)"/>
</clipPath>
</defs>
</svg>
